<svg xmlns="http://www.w3.org/2000/svg" xmlns:xlink="http://www.w3.org/1999/xlink" width="32.469" height="31.131" viewBox="0 0 32.469 31.131"><defs><style>.a{fill:#f1effd;}.b{fill:url(#a);}.c,.d{fill:#fff;}.c{stroke:#ecefff;}.d{stroke:#94a5ec;stroke-width:2px;}.e,.h{fill:none;}.e{stroke:#7e84ee;stroke-linecap:round;}.f,.g{stroke:none;}.g{fill:#fff;}</style><linearGradient id="a" x1="0.849" y1="0.622" x2="0.113" y2="0.42" gradientUnits="objectBoundingBox"><stop offset="0" stop-color="#9471f1"/><stop offset="1" stop-color="#96a9eb"/></linearGradient></defs><g transform="translate(1.61 0.941)"><circle class="a" cx="14.5" cy="14.5" r="14.5" transform="translate(0 0.247)"/><g class="b" transform="translate(9.115 -0.941) rotate(30)"><path class="f" d="M 15.96281337738037 20.95121955871582 L 9.143893241882324 20.95121955871582 C 7.552193164825439 20.95121955871582 6.063993453979492 20.09781837463379 5.260053157806396 18.72405815124512 L 1.909403324127197 12.99844837188721 C 1.088983297348022 11.59650897979736 1.088983297348022 9.85469913482666 1.909403324127197 8.45276927947998 L 5.260063171386719 2.727158784866333 C 6.063993453979492 1.35339879989624 7.552183151245117 0.4999988377094269 9.143893241882324 0.4999988377094269 L 15.96281337738037 0.4999988377094269 C 17.55451393127441 0.4999988377094269 19.0427131652832 1.35339879989624 19.84665298461914 2.727158784866333 L 23.19730377197266 8.45276927947998 C 24.01772308349609 9.854708671569824 24.01772308349609 11.59650897979736 23.19730377197266 12.99844837188721 L 19.84665298461914 18.72405815124512 C 19.0427131652832 20.09781837463379 17.55451393127441 20.95121955871582 15.96281337738037 20.95121955871582 Z"/><path class="g" d="M 9.143893241882324 0.9999980926513672 C 7.729043960571289 0.9999980926513672 6.406204223632812 1.758579254150391 5.691593170166016 2.979698181152344 L 2.3409423828125 8.70529842376709 C 1.611673355102539 9.951468467712402 1.611682891845703 11.4997386932373 2.3409423828125 12.74590873718262 L 5.691583633422852 18.47151947021484 C 6.406204223632812 19.6926383972168 7.729043960571289 20.45121955871582 9.143893241882324 20.45121955871582 L 15.96281337738037 20.45121955871582 C 17.37766265869141 20.45121955871582 18.70050430297852 19.6926383972168 19.41511344909668 18.47151947021484 L 22.76576232910156 12.7459192276001 C 23.49503326416016 11.49974918365479 23.49503326416016 9.951468467712402 22.76576232910156 8.70530891418457 L 19.41512298583984 2.979698181152344 C 18.70050430297852 1.758579254150391 17.37766265869141 0.9999980926513672 15.96281337738037 0.9999980926513672 L 9.143893241882324 0.9999980926513672 M 9.143893241882324 -1.9073486328125e-06 L 15.96281337738037 -1.9073486328125e-06 C 17.73866271972656 -1.9073486328125e-06 19.38125228881836 0.9419384002685547 20.27819442749023 2.474618911743164 L 23.62884330749512 8.200228691101074 C 24.54167366027832 9.760078430175781 24.54167366027832 11.69113922119141 23.62884330749512 13.25098896026611 L 20.27819442749023 18.97659873962402 C 19.38125228881836 20.50927925109863 17.73866271972656 21.45121955871582 15.96281337738037 21.45121955871582 L 9.143893241882324 21.45121955871582 C 7.368043899536133 21.45121955871582 5.725452423095703 20.50927925109863 4.828514099121094 18.97659873962402 L 1.477863311767578 13.25098896026611 C 0.565032958984375 11.69112873077393 0.565032958984375 9.760078430175781 1.477863311767578 8.200228691101074 L 4.828514099121094 2.474618911743164 C 5.725452423095703 0.9419384002685547 7.368043899536133 -1.9073486328125e-06 9.143893241882324 -1.9073486328125e-06 Z"/></g><g transform="translate(9.655 10.368)"><g class="c" transform="translate(-0.655 -0.121)"><rect class="f" width="11" height="9" rx="2"/><rect class="h" x="0.5" y="0.5" width="10" height="8" rx="1.5"/></g><g class="d" transform="translate(2.345 2.879)"><circle class="f" cx="0.5" cy="0.5" r="0.5"/><circle class="h" cx="0.5" cy="0.5" r="0.5"/></g><path class="e" d="M54.23,256.583l2.66-1.765,2.29,1.4,3.7-3.486" transform="translate(-53.657 -250.142)"/></g></g></svg>