<svg xmlns="http://www.w3.org/2000/svg" width="9.859" height="12" viewBox="0 0 9.859 12"><defs><style>.a{fill:#4f6ce1;}</style></defs><path class="a" d="M105.859,10.022a.42.42,0,0,0-.368-.454h-.441a4.984,4.984,0,0,1-1.913-.454,5.381,5.381,0,0,1-1.692-.831l-.294-.227a.613.613,0,0,0-.515,0l-.221.227a11.448,11.448,0,0,1-1.692.907,6.868,6.868,0,0,1-1.913.454h-.441A.42.42,0,0,0,96,10.1v4.611a5.456,5.456,0,0,0,1.766,3.628A4.989,4.989,0,0,0,100.929,20a4.989,4.989,0,0,0,3.164-1.663,5.145,5.145,0,0,0,1.766-3.628Zm-2.428,2.872-2.722,2.8a.523.523,0,0,1-.736,0l-1.324-1.436a.559.559,0,0,1,0-.756.483.483,0,0,1,.736,0l.956.983,2.354-2.419a.483.483,0,0,1,.736,0,.586.586,0,0,1,.147.378C103.578,12.668,103.578,12.819,103.431,12.894Z" transform="translate(-96 -8)"/></svg>