<svg xmlns="http://www.w3.org/2000/svg" width="24.385" height="24.384" viewBox="0 0 24.385 24.384"><defs><style>.a{fill:#4f6ce1;}</style></defs><path class="a" d="M111.093,105.081a10.056,10.056,0,0,0-2-6.041l3.146-3.146v2.453a1.482,1.482,0,0,0,2.964,0V92.437c0-.04.005-.079.005-.12a1.491,1.491,0,0,0-1.487-1.487c-.04,0-.08,0-.12.005h-5.912a1.482,1.482,0,0,0,0,2.964h2.453L107,96.945a10.135,10.135,0,1,0,4.091,8.137Zm-10.132,7.168a7.168,7.168,0,1,1,5.069-2.1A7.121,7.121,0,0,1,100.961,112.25Z" transform="translate(-90.829 -90.829)"/></svg>